<svg width="80" height="80" viewBox="0 0 80 80" fill="none" xmlns="http://www.w3.org/2000/svg">
<rect width="80" height="80" rx="5" fill="white"/>
<path d="M13.0351 39.0522C14.5865 36.82 16.3612 34.7517 18.3321 32.8794C21.0258 30.1751 24.05 27.8217 27.333 25.8748C30.5352 23.9056 34.1143 22.6291 37.8399 22.1273C41.8832 21.6954 45.968 22.3671 49.6601 24.0711C53.7968 25.9618 57.581 28.5438 60.85 31.7061C63.0268 33.7249 65.022 35.9311 66.8127 38.2992C66.9753 38.4538 67.1049 38.6398 67.1934 38.846C67.2819 39.0522 67.3274 39.2743 67.3274 39.4987C67.3274 39.7231 67.2819 39.9452 67.1934 40.1514C67.1049 40.3576 66.9753 40.5437 66.8127 40.6983C62.843 46.0308 57.8104 50.482 52.0329 53.7706C49.1583 55.4045 45.9895 56.4548 42.7081 56.8613C39.1101 57.2678 35.4673 56.7775 32.1048 55.4341C27.447 53.5473 23.1917 50.7896 19.5668 47.3088C17.3644 45.289 15.34 43.0832 13.5165 40.7158C13.3238 40.4619 13.1751 40.1904 13 39.919L13.0351 39.0522ZM39.9589 28.3527C38.4731 28.3584 37.0034 28.6616 35.6366 29.2444C34.2699 29.8272 33.0337 30.6778 32.001 31.746C30.9682 32.8143 30.1598 34.0785 29.6235 35.4641C29.0872 36.8498 28.8337 38.3288 28.8781 39.814C28.9225 41.2991 29.2639 42.7603 29.8821 44.1114C30.5004 45.4625 31.3829 46.6762 32.4776 47.6807C33.5724 48.6853 34.8574 49.4605 36.2565 49.9605C37.6557 50.4606 39.1406 50.6753 40.6241 50.5922C43.5209 50.4299 46.2397 49.1428 48.2012 47.0051C50.1627 44.8675 51.212 42.0483 51.1252 39.1483C51.0385 36.2483 49.8225 33.4969 47.7367 31.4804C45.6508 29.4638 42.8601 28.3415 39.9589 28.3527Z" fill="#2A2A2A"/>
<path d="M40.3179 34.7529C41.5834 34.7529 42.7972 35.2557 43.6921 36.1506C44.587 37.0455 45.0897 38.2592 45.0897 39.5248C45.0897 40.7904 44.587 42.0041 43.6921 42.899C42.7972 43.7939 41.5834 44.2966 40.3179 44.2966C39.6669 44.3361 39.0147 44.2419 38.4015 44.02C37.7883 43.798 37.227 43.4529 36.7521 43.0059C36.2772 42.559 35.8987 42.0195 35.6401 41.4209C35.3814 40.8222 35.248 40.1769 35.248 39.5248C35.248 38.8726 35.3814 38.2273 35.6401 37.6287C35.8987 37.03 36.2772 36.4906 36.7521 36.0436C37.227 35.5966 37.7883 35.2515 38.4015 35.0296C39.0147 34.8076 39.6669 34.7134 40.3179 34.7529Z" fill="#2A2A2A"/>
</svg>
