<svg width="80" height="80" viewBox="0 0 80 80" fill="none" xmlns="http://www.w3.org/2000/svg">
<rect width="80" height="80" rx="5" fill="white"/>
<path d="M20 39.8304C20.1 39.1404 20.1901 38.4404 20.3101 37.7604C20.9907 34.0558 22.7668 30.6405 25.4087 27.9558C28.0506 25.2712 31.4369 23.4405 35.13 22.7004C39.7803 21.7433 44.6205 22.6096 48.65 25.1204C48.7122 25.1638 48.7642 25.2204 48.8022 25.286C48.8403 25.3517 48.8634 25.4248 48.8701 25.5004C48.8168 26.8337 48.7467 28.1337 48.66 29.4004C48.6368 29.573 48.5598 29.7339 48.4401 29.8604C48.0201 30.3204 47.57 30.7504 47.16 31.1604C46.27 30.6204 45.4301 30.0704 44.5601 29.5904C42.0383 28.173 39.1095 27.6554 36.2546 28.1224C33.3998 28.5894 30.7888 30.0134 28.8501 32.1604C27.6584 33.4124 26.7314 34.892 26.1249 36.5106C25.5183 38.1292 25.2447 39.8535 25.3201 41.5804C25.418 44.8324 26.6878 47.9394 28.8956 50.329C31.1035 52.7186 34.1006 54.2299 37.3347 54.5842C40.5688 54.9385 43.822 54.1121 46.4949 52.2573C49.1678 50.4024 51.0804 47.644 51.8801 44.4904C52.438 42.5022 52.4734 40.4037 51.9829 38.3979C51.4924 36.392 50.4925 34.5467 49.0801 33.0404L48.9299 32.8604C48.9052 32.8265 48.8852 32.7895 48.8701 32.7504C49.3101 32.3004 49.76 31.8404 50.23 31.4004C50.3131 31.3362 50.415 31.3011 50.52 31.3004C51.84 31.2304 53.16 31.1504 54.52 31.0904C54.5903 31.1012 54.6576 31.1263 54.7178 31.1641C54.778 31.2019 54.8299 31.2517 54.8701 31.3104C56.1594 33.3597 57.0201 35.6492 57.4001 38.0404C57.8397 40.4959 57.7866 43.0144 57.2441 45.4493C56.7016 47.8842 55.6804 50.1869 54.24 52.2236C52.7995 54.2603 50.9686 55.9903 48.8535 57.3131C46.7385 58.6358 44.3815 59.5248 41.9198 59.9285C39.4581 60.3321 36.9408 60.2424 34.514 59.6644C32.0873 59.0864 29.7996 58.0317 27.7842 56.5617C25.7687 55.0917 24.0656 53.2356 22.7739 51.1015C21.4822 48.9674 20.6277 46.5977 20.26 44.1304C20.17 43.5804 20.1 43.0304 20.03 42.4804L20 39.8304Z" fill="#2A2A2A"/>
<path d="M55.52 20C55.6046 20.1111 55.6947 20.218 55.79 20.32L59.97 24.5L59.6702 24.82C58.5002 25.99 57.3302 27.15 56.1702 28.33C56.0736 28.4399 55.9553 28.5286 55.8228 28.5906C55.6902 28.6525 55.5464 28.6864 55.4001 28.69C54.0101 28.75 52.63 28.84 51.24 28.91H51.04C51.04 28.07 51.1202 27.25 51.1702 26.42C51.1702 25.76 51.24 25.1 51.3 24.42C51.3284 24.2351 51.4081 24.0619 51.53 23.92L55.4399 20H55.52Z" fill="#2A2A2A"/>
<path d="M45.4699 32.8492C44.3299 33.9892 43.2598 35.0492 42.1998 36.1192C42.0098 36.3192 41.8897 36.1792 41.7397 36.1192C40.6178 35.4708 39.3124 35.2133 38.0283 35.3871C36.7442 35.5608 35.5541 36.156 34.6448 37.0792C33.7355 38.0024 33.1585 39.2014 33.0043 40.488C32.8501 41.7746 33.1274 43.076 33.7927 44.188C34.4581 45.2999 35.4739 46.1595 36.6805 46.6318C37.8872 47.1041 39.2165 47.1624 40.4598 46.7976C41.7032 46.4327 42.7903 45.6653 43.5504 44.6159C44.3106 43.5665 44.7008 42.2943 44.6598 40.9992C44.6297 40.022 44.351 39.0687 43.8499 38.2292C43.7599 38.0792 43.6699 37.9592 43.8499 37.7892C44.9599 36.6892 46.0498 35.5792 47.1898 34.4392C47.4398 34.7392 47.6798 34.9992 47.8998 35.2892C49.1687 36.9311 49.8989 38.9253 49.9902 40.9984C50.0815 43.0715 49.5295 45.1221 48.4098 46.8692C47.3819 48.6929 45.8458 50.1783 43.9885 51.1442C42.1313 52.1101 40.0331 52.5149 37.9498 52.3092C35.458 52.1331 33.0989 51.1193 31.2561 49.4327C29.4134 47.7461 28.1953 45.4858 27.7998 43.0192C27.3202 40.2417 27.9372 37.3865 29.5209 35.0549C31.1045 32.7233 33.5311 31.0973 36.2898 30.5192C38.856 30.01 41.5199 30.4771 43.7598 31.8292C44.3198 32.1192 44.8598 32.4792 45.4699 32.8492Z" fill="#2A2A2A"/>
<path d="M40.3001 37.9994L38.0201 40.2294L39.7102 41.9094L41.9301 39.6594C42.2915 40.3525 42.4024 41.1491 42.2438 41.9145C42.0853 42.6799 41.6671 43.367 41.0601 43.8594C40.3996 44.4111 39.5598 44.7017 38.6995 44.6762C37.8393 44.6507 37.0182 44.311 36.3914 43.7212C35.7647 43.1314 35.3757 42.3323 35.298 41.4752C35.2204 40.6181 35.4596 39.7622 35.9702 39.0694C36.4498 38.409 37.1473 37.9394 37.9396 37.7436C38.732 37.5478 39.5681 37.6384 40.3001 37.9994Z" fill="#2A2A2A"/>
</svg>
