<svg width="30" height="20" viewBox="0 0 30 20" fill="none" xmlns="http://www.w3.org/2000/svg">
<path d="M30 18.7248C29.8646 18.9799 29.7652 19.2646 29.5859 19.4852C29.2634 19.8834 28.8032 20 28.3015 20C25.1376 19.9969 21.9741 19.9969 18.8108 20C13.1187 20 7.42663 20 1.73456 20C1.30171 20 0.898596 19.9218 0.560454 19.6362C0.169085 19.3053 -0.00155481 18.8805 1.0669e-05 18.3712C0.00366344 16.4196 0.00366344 14.468 1.0669e-05 12.5163V1.77195C1.0669e-05 0.609424 0.605852 0 1.76352 0H28.0956C29.2094 0 29.5828 0.248775 29.9984 1.27361L30 18.7248ZM28.8259 1.90104C28.6936 1.99726 28.6067 2.0575 28.5214 2.12243C24.5936 5.06604 20.6656 8.01017 16.7373 10.9548C15.6305 11.7833 14.3726 11.7856 13.2768 10.9642L1.44964 2.0974C1.37137 2.03716 1.28527 1.98005 1.18586 1.91042V17.9675C1.29544 17.8377 1.37137 17.7508 1.44338 17.6616L7.00865 10.7905C7.22312 10.5253 7.43054 10.2531 7.6591 10.0004C7.75727 9.88905 7.89539 9.82086 8.04352 9.81061C8.19166 9.80036 8.33786 9.84887 8.45045 9.94563C8.55924 10.0383 8.62966 10.1681 8.64803 10.3098C8.6664 10.4515 8.63141 10.595 8.54986 10.7123C8.50541 10.7765 8.45732 10.8382 8.40583 10.8969C6.34254 13.4457 4.27898 15.994 2.21516 18.5418C2.1455 18.6278 2.08053 18.717 2.00225 18.8187H28.0032C27.9297 18.7209 27.8803 18.6497 27.8263 18.584C25.8116 16.0973 23.7965 13.61 21.7813 11.1222C21.6764 10.9939 21.566 10.8688 21.4682 10.7311C21.3765 10.6145 21.3343 10.4665 21.3509 10.3191C21.3674 10.1717 21.4413 10.0367 21.5566 9.94329C21.6703 9.84858 21.8164 9.80154 21.964 9.81204C22.1117 9.82254 22.2496 9.88976 22.3487 9.99961C22.402 10.0569 22.4522 10.1169 22.499 10.1795L28.6044 17.7086C28.6654 17.7868 28.732 17.8564 28.8306 17.9699L28.8259 1.90104ZM2.14628 1.16487C2.24256 1.2431 2.28404 1.28378 2.32944 1.32133C6.23217 4.24773 10.1352 7.17361 14.0384 10.099C14.3145 10.3135 14.6545 10.4294 15.0042 10.4282C15.3539 10.4271 15.6932 10.309 15.9679 10.0927C19.8633 7.17465 23.7587 4.25582 27.6541 1.3362C27.7149 1.29785 27.7788 1.26461 27.8451 1.23685L27.777 1.16879L2.14628 1.16487Z" fill="white"/>
</svg>
