<svg width="25" height="26" viewBox="0 0 25 26" fill="none" xmlns="http://www.w3.org/2000/svg">
<path d="M5.34185 0.5C6.14296 0.655745 6.72035 1.15803 7.26745 1.71774C8.23562 2.70867 9.23798 3.66455 10.1827 4.67981C11.0698 5.63083 11.062 6.91865 10.1915 7.8833C9.58577 8.55301 8.92828 9.17697 8.28251 9.81066C8.15257 9.93915 8.12229 10.0287 8.20533 10.2C8.8511 11.5462 9.78508 12.6822 10.7943 13.7627C11.8163 14.8738 12.9758 15.8512 14.2449 16.6712C14.5947 16.8941 14.9708 17.0752 15.3303 17.2835C15.4524 17.3555 15.5257 17.3332 15.6234 17.2358C16.1676 16.6839 16.6981 16.1232 17.2735 15.6005C17.5747 15.3043 17.9221 15.0588 18.3022 14.8734C19.2792 14.4499 20.1663 14.6865 20.9117 15.4048C21.9864 16.4474 23.0356 17.5239 24.1073 18.5723C25.2172 19.6586 25.3119 21.0973 24.2803 22.2051C23.5212 23.0208 22.7464 23.8297 21.9189 24.5763C21.0328 25.3745 19.9279 25.5721 18.7624 25.4786C16.9325 25.3326 15.258 24.6882 13.6343 23.8822C11.236 22.7026 9.03786 21.1559 7.11993 19.2985C4.23007 16.4843 1.90295 13.2896 0.574279 9.44271C0.205965 8.37196 -0.0226429 7.28174 0.00178111 6.1448C0.0262052 5.03998 0.392566 4.07533 1.17414 3.28297C1.82088 2.62689 2.47219 1.97796 3.12806 1.33616C3.55959 0.910664 4.10733 0.621198 4.70292 0.503891L5.34185 0.5ZM19.1874 24.2424C19.9523 24.2609 20.6528 24.0701 21.2136 23.5347C21.9463 22.8293 22.6585 22.1016 23.3502 21.3514C23.867 20.7907 23.8611 20.1755 23.3277 19.6294C22.2286 18.5042 21.11 17.3964 19.9846 16.2975C19.5459 15.8692 18.99 15.8584 18.4908 16.2205C18.3677 16.3144 18.2518 16.4172 18.144 16.5282C17.5353 17.1307 16.9315 17.7381 16.3229 18.3387C15.9145 18.7417 15.4876 18.8118 14.9845 18.5558C14.6289 18.3757 14.2723 18.1927 13.9303 17.9883C12.3838 17.0655 11.0336 15.9042 9.81243 14.5911C8.68208 13.3763 7.65334 12.0875 6.96459 10.5602C6.66564 9.89534 6.73402 9.53518 7.25767 9.0329C7.85655 8.45665 8.45543 7.87941 9.0377 7.2866C9.72158 6.58964 9.72157 6.02117 9.04943 5.31545L9.01523 5.28138C8.01092 4.27975 7.00855 3.27519 5.99837 2.28037C5.8395 2.1168 5.65424 1.98091 5.45029 1.87835C4.8944 1.6204 4.42937 1.8472 4.03175 2.23267C3.38793 2.85663 2.74118 3.4796 2.13253 4.13665C1.86098 4.42715 1.64214 4.76245 1.48578 5.12759C1.14775 5.93941 1.23666 6.79016 1.40568 7.62535C1.72807 9.21687 2.34356 10.7062 3.14271 12.1108C5.99837 17.1297 9.99512 20.926 15.3196 23.2758C16.5505 23.819 17.8294 24.1937 19.1874 24.2424Z" fill="white"/>
</svg>
