<svg width="80" height="80" viewBox="0 0 80 80" fill="none" xmlns="http://www.w3.org/2000/svg">
<circle cx="40" cy="40" r="40" fill="#ED313A"/>
<path d="M9 39.5099C10.7719 36.9604 12.7988 34.5982 15.0498 32.4599C18.1263 29.3713 21.5803 26.6834 25.3298 24.4599C28.9871 22.2108 33.0748 20.7529 37.3298 20.1799C41.9478 19.6865 46.6131 20.4537 50.8298 22.3999C55.5544 24.5592 59.8763 27.5081 63.6099 31.1199C66.096 33.4256 68.3748 35.9453 70.4199 38.6499C70.6057 38.8264 70.7537 39.0389 70.8547 39.2744C70.9558 39.51 71.0078 39.7636 71.0078 40.0199C71.0078 40.2762 70.9558 40.5298 70.8547 40.7653C70.7537 41.0008 70.6057 41.2133 70.4199 41.3899C65.8862 47.4803 60.1383 52.564 53.5398 56.3199C50.2567 58.186 46.6376 59.3856 42.8899 59.8499C38.7806 60.3141 34.6201 59.7541 30.7798 58.2199C25.46 56.0649 20.6 52.9153 16.46 48.9399C13.9446 46.6331 11.6325 44.1137 9.5498 41.4099C9.3298 41.1199 9.15996 40.8099 8.95996 40.4999L9 39.5099ZM39.75 27.2899C38.053 27.2964 36.3745 27.6427 34.8135 28.3083C33.2525 28.9739 31.8407 29.9454 30.6611 31.1655C29.4816 32.3855 28.5583 33.8294 27.9458 35.4119C27.3333 36.9945 27.0437 38.6837 27.0945 40.3799C27.1452 42.0761 27.5351 43.745 28.2412 45.2881C28.9473 46.8312 29.9552 48.2173 31.2056 49.3647C32.4559 50.512 33.9235 51.3973 35.5215 51.9684C37.1195 52.5395 38.8154 52.7848 40.5098 52.6899C43.8181 52.5045 46.9233 51.0345 49.1636 48.593C51.4039 46.1516 52.6023 42.9317 52.5032 39.6197C52.4041 36.3076 51.0153 33.1652 48.6331 30.862C46.2508 28.5589 43.0635 27.2771 39.75 27.2899Z" fill="white"/>
<path d="M40.1599 34.6001C41.6053 34.6001 42.9916 35.1743 44.0137 36.1964C45.0357 37.2184 45.6099 38.6047 45.6099 40.0501C45.6099 41.4955 45.0357 42.8818 44.0137 43.9038C42.9916 44.9259 41.6053 45.5001 40.1599 45.5001C39.4164 45.5451 38.6716 45.4376 37.9712 45.1841C37.2708 44.9306 36.6298 44.5365 36.0874 44.026C35.545 43.5155 35.1128 42.8994 34.8174 42.2156C34.522 41.5319 34.3696 40.7949 34.3696 40.0501C34.3696 39.3053 34.522 38.5683 34.8174 37.8845C35.1128 37.2008 35.545 36.5847 36.0874 36.0742C36.6298 35.5637 37.2708 35.1696 37.9712 34.9161C38.6716 34.6626 39.4164 34.555 40.1599 34.6001Z" fill="white"/>
</svg>
