<svg width="80" height="80" viewBox="0 0 80 80" fill="none" xmlns="http://www.w3.org/2000/svg">
<circle cx="40" cy="40" r="40" fill="#ED313A"/>
<path d="M20 39.8299C20.1 39.1399 20.1901 38.4399 20.3101 37.7599C20.9907 34.0553 22.7668 30.64 25.4087 27.9554C28.0506 25.2707 31.4369 23.44 35.13 22.6999C39.7803 21.7428 44.6205 22.6092 48.65 25.1199C48.7122 25.1633 48.7642 25.2199 48.8022 25.2855C48.8403 25.3512 48.8634 25.4243 48.8701 25.4999C48.8168 26.8332 48.7467 28.1332 48.66 29.3999C48.6368 29.5725 48.5598 29.7334 48.4401 29.8599C48.0201 30.3199 47.57 30.7499 47.16 31.1599C46.27 30.6199 45.4301 30.0699 44.5601 29.5899C42.0383 28.1725 39.1095 27.6549 36.2546 28.1219C33.3998 28.5889 30.7888 30.0129 28.8501 32.1599C27.6584 33.4119 26.7314 34.8915 26.1249 36.5101C25.5183 38.1287 25.2447 39.853 25.3201 41.5799C25.418 44.8319 26.6878 47.9389 28.8956 50.3285C31.1035 52.7182 34.1006 54.2294 37.3347 54.5837C40.5688 54.9381 43.822 54.1117 46.4949 52.2568C49.1678 50.4019 51.0804 47.6435 51.8801 44.4899C52.438 42.5017 52.4734 40.4032 51.9829 38.3974C51.4924 36.3916 50.4925 34.5462 49.0801 33.0399L48.9299 32.8599C48.9052 32.826 48.8852 32.789 48.8701 32.7499C49.3101 32.2999 49.76 31.8399 50.23 31.3999C50.3131 31.3357 50.415 31.3006 50.52 31.2999C51.84 31.2299 53.16 31.1499 54.52 31.0899C54.5903 31.1007 54.6576 31.1258 54.7178 31.1636C54.778 31.2014 54.8299 31.2512 54.8701 31.3099C56.1594 33.3593 57.0201 35.6487 57.4001 38.0399C57.8397 40.4955 57.7866 43.0139 57.2441 45.4488C56.7016 47.8837 55.6804 50.1865 54.24 52.2231C52.7995 54.2598 50.9686 55.9898 48.8535 57.3126C46.7385 58.6353 44.3815 59.5243 41.9198 59.928C39.4581 60.3316 36.9408 60.2419 34.514 59.6639C32.0873 59.0859 29.7996 58.0312 27.7842 56.5612C25.7687 55.0912 24.0656 53.2351 22.7739 51.101C21.4822 48.9669 20.6277 46.5972 20.26 44.1299C20.17 43.5799 20.1 43.0299 20.03 42.4799L20 39.8299Z" fill="white"/>
<path d="M55.52 20C55.6046 20.1111 55.6947 20.218 55.79 20.32L59.97 24.5L59.6702 24.82C58.5002 25.99 57.3302 27.15 56.1702 28.33C56.0736 28.4399 55.9553 28.5286 55.8228 28.5906C55.6902 28.6525 55.5464 28.6864 55.4001 28.69C54.0101 28.75 52.63 28.84 51.24 28.91H51.04C51.04 28.07 51.1202 27.25 51.1702 26.42C51.1702 25.76 51.24 25.1 51.3 24.42C51.3284 24.2351 51.4081 24.0619 51.53 23.92L55.4399 20H55.52Z" fill="white"/>
<path d="M45.4699 32.8499C44.3299 33.9899 43.2598 35.0499 42.1998 36.1199C42.0098 36.3199 41.8897 36.1799 41.7397 36.1199C40.6178 35.4715 39.3124 35.214 38.0283 35.3878C36.7442 35.5616 35.5541 36.1567 34.6448 37.08C33.7355 38.0032 33.1585 39.2022 33.0043 40.4888C32.8501 41.7754 33.1274 43.0768 33.7927 44.1887C34.4581 45.3007 35.4739 46.1602 36.6805 46.6325C37.8872 47.1048 39.2165 47.1631 40.4598 46.7983C41.7032 46.4334 42.7903 45.6661 43.5504 44.6166C44.3106 43.5672 44.7008 42.2951 44.6598 40.9999C44.6297 40.0227 44.351 39.0694 43.8499 38.2299C43.7599 38.0799 43.6699 37.9599 43.8499 37.7899C44.9599 36.6899 46.0498 35.5799 47.1898 34.4399C47.4398 34.7399 47.6798 34.9999 47.8998 35.2899C49.1687 36.9318 49.8989 38.926 49.9902 40.9991C50.0815 43.0722 49.5295 45.1228 48.4098 46.8699C47.3819 48.6936 45.8458 50.179 43.9885 51.1449C42.1313 52.1108 40.0331 52.5156 37.9498 52.3099C35.458 52.1338 33.0989 51.1201 31.2561 49.4334C29.4134 47.7468 28.1953 45.4865 27.7998 43.0199C27.3202 40.2425 27.9372 37.3873 29.5209 35.0556C31.1045 32.724 33.5311 31.098 36.2898 30.5199C38.856 30.0107 41.5199 30.4779 43.7598 31.8299C44.3198 32.1199 44.8598 32.4799 45.4699 32.8499Z" fill="white"/>
<path d="M40.3001 37.9999L38.0201 40.2299L39.7102 41.9099L41.9301 39.6599C42.2915 40.353 42.4024 41.1496 42.2438 41.915C42.0853 42.6804 41.6671 43.3675 41.0601 43.8599C40.3996 44.4116 39.5598 44.7022 38.6995 44.6767C37.8393 44.6512 37.0182 44.3115 36.3914 43.7217C35.7647 43.1318 35.3757 42.3328 35.298 41.4757C35.2204 40.6186 35.4596 39.7627 35.9702 39.0699C36.4498 38.4095 37.1473 37.9399 37.9396 37.7441C38.732 37.5483 39.5681 37.6389 40.3001 37.9999Z" fill="white"/>
</svg>
