<svg width="80" height="80" viewBox="0 0 80 80" fill="none" xmlns="http://www.w3.org/2000/svg">
<circle cx="40" cy="40" r="40" fill="#ED313A"/>
<path d="M38.8901 20L51.4001 35.92H45.6902V41.5C45.6902 41.7 45.6902 41.85 45.4402 41.95C44.0986 42.5106 42.8884 43.3442 41.8865 44.3978C40.8845 45.4514 40.1126 46.702 39.6201 48.07L39.5403 48.24H39.4702L38.4202 46.77C35.9335 43.25 33.4435 39.7367 30.9502 36.23C30.8877 36.1206 30.7952 36.0314 30.6836 35.9729C30.572 35.9144 30.4459 35.8891 30.3203 35.9H25.1201C25.5901 35.34 26.0102 34.9 26.4302 34.37L38.5503 20.37C38.6459 20.2532 38.7328 20.1295 38.8103 20H38.8901Z" fill="white"/>
<path d="M57.8801 51.6701C57.8821 53.3165 57.3956 54.9265 56.4821 56.2962C55.5687 57.666 54.2694 58.7339 52.7487 59.3649C51.2281 59.9958 49.5543 60.1614 47.9394 59.8407C46.3246 59.52 44.8411 58.7274 43.677 57.5632C42.5128 56.3991 41.7203 54.9156 41.3996 53.3008C41.0789 51.6859 41.2445 50.0122 41.8755 48.4916C42.5064 46.9709 43.5743 45.6716 44.9441 44.7581C46.3138 43.8447 47.9239 43.3581 49.5703 43.3601C51.7742 43.3601 53.8878 44.2356 55.4463 45.794C57.0047 47.3525 57.8801 49.4662 57.8801 51.6701ZM45.6201 52.3401L48.6201 55.3401L53.5302 50.4301L51.9001 48.8101L48.5302 52.2001L47.1801 50.7601L45.6201 52.3401Z" fill="white"/>
<path d="M26.26 59.97V49.86H23L30.73 39.75L37.8201 49.82H34.5801V59.97H26.26Z" fill="white"/>
<path d="M43 59.9899H36.8301V52.1299H38.98C39.0536 53.6503 39.4502 55.1377 40.1433 56.4929C40.8365 57.8482 41.8103 59.0403 43 59.9899Z" fill="white"/>
</svg>
