<svg width="59" height="50" viewBox="0 0 59 50" fill="none" xmlns="http://www.w3.org/2000/svg">
<path d="M0.0100097 34.4347C0.202369 33.6216 0.451301 32.823 0.754997 32.0447C2.19498 28.9797 4.62995 27.2598 7.99991 27.0098C9.6349 26.8898 11.2899 27.0098 12.9649 27.0098C12.9799 27.1159 12.9799 27.2236 12.9649 27.3297C12.4841 28.8687 12.271 30.4787 12.3349 32.0897C12.3349 37.0146 12.3349 41.9446 12.3349 46.8695C12.3349 47.8945 12.4249 48.9245 12.4749 49.9845C12.4184 49.9909 12.3614 49.9909 12.3049 49.9845C9.87492 49.9845 7.44493 50.0195 5.01496 49.9845C3.84486 49.9835 2.71217 49.5722 1.8141 48.8221C0.916026 48.072 0.309453 47.0307 0.100005 45.8795C0.0732766 45.7889 0.0398456 45.7003 0 45.6145L0.0100097 34.4347Z" fill="#EE223D"/>
<path d="M29.4429 49.9745H17.8431C16.3431 49.9745 15.7431 49.3895 15.7481 47.9046C15.7481 42.1296 15.7481 36.3547 15.7481 30.5797C15.7781 26.8048 18.9581 23.2398 22.693 22.6798C23.2025 22.5989 23.7172 22.5555 24.233 22.5498C27.868 22.5498 31.5079 22.5198 35.1429 22.5498C38.7778 22.5798 42.4078 25.7898 42.9528 29.4598C43.0445 30.047 43.0913 30.6404 43.0928 31.2347C43.0928 36.8147 43.0928 42.3963 43.0928 47.9796C43.1322 48.2514 43.1076 48.5286 43.021 48.7892C42.9345 49.0498 42.7883 49.2867 42.5941 49.4808C42.3999 49.675 42.1631 49.8212 41.9025 49.9078C41.6418 49.9944 41.3646 50.0189 41.0928 49.9795L29.4429 49.9745Z" fill="#EE223D"/>
<path d="M29.4589 3.1068e-05C31.485 0.002066 33.4648 0.605668 35.1473 1.7343C36.8299 2.86292 38.1395 4.46575 38.9099 6.33956C39.6804 8.21337 39.8771 10.2738 39.4752 12.2595C39.0732 14.2453 38.0906 16.067 36.652 17.4936C35.2134 18.9203 33.3837 19.8876 31.3946 20.273C29.4056 20.6584 27.3469 20.4445 25.4796 19.6584C23.6123 18.8724 22.0204 17.5495 20.9058 15.8576C19.7912 14.1657 19.2042 12.1809 19.219 10.1549C19.2349 7.45184 20.3216 4.86525 22.2409 2.96184C24.1603 1.05842 26.7558 -0.0066311 29.4589 3.1068e-05Z" fill="#EE223D"/>
<path d="M46.38 49.9746C46.43 48.9146 46.515 47.9046 46.52 46.8996C46.52 42.0047 46.52 37.1147 46.52 32.2248C46.5922 30.5572 46.3774 28.8897 45.885 27.2948C45.8717 27.1769 45.8717 27.0578 45.885 26.9398C48.4149 27.0948 50.9499 26.6098 53.3849 27.5298C54.9569 28.1379 56.3134 29.1981 57.2834 30.5765C58.2534 31.9549 58.7932 33.5898 58.8348 35.2747C58.8348 38.4597 58.8348 41.6447 58.8348 44.8296C58.8521 45.4929 58.7372 46.153 58.4968 46.7714C58.2564 47.3898 57.8954 47.9542 57.4346 48.4317C56.9739 48.9091 56.4228 49.2901 55.8133 49.5524C55.2039 49.8148 54.5484 49.9532 53.8849 49.9596C51.3699 50.0296 48.8449 49.9746 46.38 49.9746Z" fill="#EE223D"/>
<path d="M19.1247 16.8448C19.4197 20.9098 16.1248 24.5897 11.8498 24.8447C10.838 24.8903 9.82721 24.7347 8.87592 24.387C7.92462 24.0394 7.05173 23.5065 6.30774 22.8192C5.56375 22.1319 4.96343 21.304 4.54155 20.3832C4.11967 19.4624 3.88459 18.4671 3.84991 17.4548C3.63491 13.6549 6.89488 9.90489 10.6648 9.5799C11.7031 9.4712 12.7527 9.57562 13.7492 9.88675C14.7458 10.1979 15.6683 10.7092 16.4603 11.3893C17.2524 12.0695 17.8972 12.9041 18.3553 13.8422C18.8135 14.7803 19.0753 15.802 19.1247 16.8448Z" fill="#EE223D"/>
<path d="M47.3737 9.52991C48.8914 9.52795 50.3755 9.97657 51.6379 10.8189C52.9004 11.6613 53.8843 12.8595 54.4651 14.2616C55.0459 15.6638 55.1973 17.2068 54.9003 18.6951C54.6032 20.1834 53.871 21.5501 52.7965 22.6218C51.7219 23.6936 50.3534 24.4222 48.8643 24.7154C47.3752 25.0086 45.8326 24.8531 44.432 24.2686C43.0313 23.6842 41.8357 22.6971 40.9966 21.4324C40.1576 20.1678 39.7129 18.6825 39.7188 17.1648C39.7333 15.1409 40.545 13.2043 41.9781 11.7751C43.4111 10.3458 45.3498 9.53907 47.3737 9.52991Z" fill="#EE223D"/>
</svg>
