<svg width="51" height="50" viewBox="0 0 51 50" fill="none" xmlns="http://www.w3.org/2000/svg">
<path d="M0.0195312 22.7832C0.144494 22.0034 0.259464 21.2186 0.399422 20.4439C1.09882 16.4778 2.78129 12.7502 5.29298 9.60212C8.95617 4.88194 14.2051 1.6484 20.0686 0.49985C21.1882 0.269919 22.333 0.174948 23.5026 0C23.5026 0.239928 23.5325 0.379886 23.5325 0.49985C23.5325 2.72918 23.5325 4.95353 23.5325 7.17786C23.5325 7.52276 23.4176 7.63771 23.1127 7.74268C21.9666 8.12646 20.9683 8.85735 20.2563 9.83397C19.5443 10.8106 19.1538 11.9846 19.1389 13.1931C19.1241 14.4016 19.4857 15.5848 20.1735 16.5786C20.8614 17.5724 21.8414 18.3276 22.9777 18.7394C23.069 18.7567 23.1559 18.792 23.2334 18.8433C23.3109 18.8945 23.3774 18.9607 23.429 19.038C23.4807 19.1152 23.5165 19.2019 23.5342 19.2931C23.552 19.3843 23.5514 19.4782 23.5325 19.5691C23.5025 20.8638 23.5325 22.1634 23.5325 23.528H17.8743C17.6548 23.503 17.4325 23.5269 17.2234 23.5978C17.0142 23.6687 16.8232 23.785 16.6642 23.9383C16.5052 24.0916 16.3819 24.2781 16.3034 24.4846C16.2248 24.691 16.1929 24.9122 16.2098 25.1325C16.1724 25.8691 15.8589 26.5646 15.3318 27.0805C14.8048 27.5965 14.1029 27.895 13.3656 27.9166C12.6127 27.9457 11.8782 27.6799 11.3182 27.1759C10.7581 26.6718 10.4167 25.9692 10.3665 25.2175C10.2666 23.9928 9.76162 23.528 8.51699 23.528H0.0195312V22.7832Z" fill="#EE223D"/>
<path d="M26.4516 49.995V42.4523L27.0664 42.2123C28.1967 41.792 29.169 41.0316 29.8493 40.0358C30.5297 39.0401 30.8847 37.858 30.8655 36.6522C30.8463 35.4463 30.4539 34.2761 29.7422 33.3025C29.0305 32.3289 28.0345 31.5998 26.8914 31.2156C26.5565 31.1057 26.4366 30.9707 26.4416 30.6158C26.4665 29.2512 26.4416 27.8916 26.4416 26.4771H27.0063C28.7108 26.4771 30.4154 26.4771 32.1249 26.4771C32.3402 26.4976 32.5573 26.4713 32.7614 26.4001C32.9656 26.3288 33.1521 26.2142 33.3078 26.0642C33.4635 25.9142 33.5849 25.7322 33.6638 25.5308C33.7426 25.3295 33.7768 25.1134 33.7643 24.8975C33.794 24.1603 34.1009 23.4614 34.6236 22.9406C35.1462 22.4198 35.8462 22.1155 36.5835 22.0884C37.3464 22.0488 38.0941 22.3124 38.6634 22.8218C39.2327 23.3312 39.5775 24.045 39.6227 24.8076C39.7176 26.0022 40.2374 26.4771 41.4371 26.4771H50.0595C49.8496 27.8217 49.7396 29.1163 49.4397 30.3709C47.4403 38.7684 42.4684 44.6949 34.5241 48.1506C32.3288 49.0885 29.9992 49.6738 27.6213 49.8851C27.4963 49.9097 27.3728 49.9413 27.2514 49.98L26.4516 49.995Z" fill="#EE223D"/>
<path d="M0.0198915 26.492H7.57269C7.91385 27.7781 8.68025 28.9109 9.74708 29.7061C10.4817 30.2561 11.336 30.6247 12.2402 30.7818C13.1444 30.939 14.073 30.8801 14.9501 30.6102C15.8273 30.3402 16.6282 29.8667 17.2876 29.2284C17.9469 28.59 18.4462 27.8048 18.7444 26.9369C18.7565 26.8645 18.7827 26.7952 18.8218 26.7331C18.8608 26.6709 18.9118 26.6171 18.9717 26.5748C19.0317 26.5325 19.0995 26.5026 19.1711 26.4866C19.2428 26.4707 19.3168 26.4691 19.3891 26.482C20.7337 26.507 22.0834 26.482 23.488 26.482V27.0319C23.488 28.7564 23.488 30.4758 23.488 32.2003C23.4705 32.414 23.4989 32.629 23.5716 32.8307C23.6442 33.0324 23.7593 33.2162 23.909 33.3697C24.0587 33.5232 24.2395 33.6428 24.4393 33.7204C24.6392 33.7981 24.8534 33.832 25.0674 33.8198C25.81 33.8555 26.5114 34.1717 27.0298 34.7046C27.5481 35.2374 27.8448 35.9472 27.8601 36.6904C27.8753 37.4337 27.6079 38.155 27.1118 38.7087C26.6156 39.2623 25.9279 39.607 25.1874 39.6731C23.9828 39.768 23.503 40.2829 23.503 41.4725V50H22.7232C21.8334 49.855 20.9287 49.7501 20.0489 49.5651C14.1866 48.4106 8.93905 45.1761 5.27332 40.4578C2.76456 37.3079 1.08256 33.5812 0.379891 29.6161C0.239933 28.8413 0.124963 28.0566 0 27.2768L0.0198915 26.492Z" fill="#EE223D"/>
<path d="M26.4528 0.0799561C39.349 0.694772 49.4459 11.4816 49.9458 23.5329H42.448C41.4833 20.8038 39.6088 19.1543 36.6347 19.2042C33.7706 19.2492 31.9661 20.8837 31.0414 23.5529H26.4828V23.0531C26.4828 21.3486 26.4828 19.6441 26.4828 17.9346C26.5085 17.7152 26.4853 17.4928 26.415 17.2834C26.3447 17.074 26.2291 16.8827 26.0762 16.7232C25.9234 16.5637 25.7372 16.4399 25.531 16.3607C25.3248 16.2816 25.1035 16.2489 24.8832 16.2651C24.1462 16.2302 23.4495 15.9184 22.9324 15.392C22.4153 14.8656 22.116 14.1635 22.0941 13.426C22.0638 12.6735 22.3284 11.939 22.8316 11.3788C23.3348 10.8186 24.0369 10.4771 24.7883 10.4269C26.0179 10.3269 26.4828 9.82204 26.4828 8.58741V0.0799561H26.4528Z" fill="#EE223D"/>
</svg>
