<svg width="50" height="50" viewBox="0 0 50 50" fill="none" xmlns="http://www.w3.org/2000/svg">
<path d="M43.2225 49.975C42.5372 49.7674 41.8692 49.5068 41.2243 49.1957C40.5462 48.8155 39.9514 48.3028 39.4753 47.6882C38.9992 47.0735 38.6516 46.3694 38.4531 45.6178C38.2546 44.8661 38.2092 44.0822 38.3197 43.3126C38.4302 42.543 38.6943 41.8035 39.0962 41.1381C39.1581 41.0438 39.1813 40.9293 39.1612 40.8184C38.7616 41.223 38.3719 41.6276 37.9673 42.0273C37.2531 42.7648 36.389 43.3405 35.4333 43.7153C34.4775 44.0902 33.4525 44.2556 32.4274 44.2003C31.3961 44.1608 30.3851 43.902 29.4617 43.4412C28.5384 42.9804 27.7238 42.328 27.0723 41.5277L33.3316 35.2585C32.9769 34.9637 32.6222 34.704 32.3325 34.3992C32.1823 34.2664 32.061 34.1043 31.9759 33.9229C31.8907 33.7414 31.8436 33.5444 31.8375 33.3441C31.8314 33.1438 31.8663 32.9443 31.9402 32.7579C32.014 32.5716 32.1252 32.4024 32.267 32.2607C32.4087 32.1189 32.5779 32.0077 32.7643 31.9339C32.9506 31.86 33.1501 31.825 33.3504 31.8312C33.5507 31.8373 33.7477 31.8844 33.9292 31.9695C34.1106 32.0546 34.2727 32.176 34.4055 32.3261C34.7053 32.6209 34.975 32.9456 35.2598 33.2553L41.4841 27.016C42.4068 27.7689 43.1342 28.7332 43.6047 29.8272C44.0752 30.9213 44.2748 32.1126 44.1866 33.3002C44.0268 35.798 42.618 37.6013 40.8446 39.2098C41.2792 39.01 41.6989 38.7802 42.1435 38.6204C42.9389 38.3321 43.7875 38.2201 44.6304 38.2921C45.4734 38.3641 46.2907 38.6185 47.0256 39.0375C47.7606 39.4566 48.3957 40.0303 48.8871 40.719C49.3785 41.4077 49.7143 42.195 49.8714 43.0263C49.8968 43.099 49.9285 43.1692 49.9663 43.2362V44.9896C49.9303 45.0402 49.9017 45.0957 49.8814 45.1544C49.6995 46.2125 49.2271 47.1993 48.517 48.0046C47.8069 48.81 46.8871 49.4022 45.8601 49.7152C45.5753 49.8101 45.2806 49.8801 44.9909 49.965L43.2225 49.975Z" fill="#EE223D"/>
<path d="M49.9511 6.78453C49.8512 7.11923 49.7612 7.45892 49.6463 7.78362C49.3655 8.6084 48.9038 9.35995 48.295 9.98327C47.6862 10.6066 46.9457 11.0859 46.1278 11.3862C45.3099 11.6864 44.4352 11.8 43.5677 11.7186C42.7002 11.6372 41.862 11.3629 41.1142 10.9158C41.0685 10.8849 41.0171 10.8636 40.963 10.8533C40.9089 10.843 40.8532 10.8439 40.7994 10.8558L41.9684 12.0098C43.0442 13.0379 43.7694 14.3783 44.0415 15.8413C44.541 18.6737 43.6468 21.0115 41.5438 22.9547C40.145 21.551 38.7613 20.1773 37.4025 18.7836C37.3669 18.7051 37.3486 18.6199 37.3486 18.5338C37.3486 18.4476 37.3669 18.3625 37.4025 18.284C37.6221 17.7002 37.7144 17.0763 37.6732 16.454C37.6319 15.8316 37.4581 15.2253 37.1634 14.6756C36.8687 14.1259 36.4599 13.6456 35.9644 13.2668C35.4689 12.888 34.8981 12.6195 34.2904 12.4793C33.4305 12.2847 32.5324 12.3473 31.7078 12.6592C31.6241 12.6864 31.5352 12.6934 31.4483 12.6795C31.3615 12.6656 31.2792 12.6312 31.2082 12.5792C29.8595 11.2604 28.5307 9.92167 27.2119 8.58289C27.178 8.54168 27.1495 8.49636 27.127 8.44801C27.8775 7.54441 28.8343 6.83448 29.9167 6.37806C30.9991 5.92164 32.1753 5.73209 33.3462 5.82541C35.844 5.98526 37.6323 7.40397 39.2359 9.28225C38.9517 8.62961 38.7016 7.96266 38.4866 7.28408C38.298 6.52573 38.2634 5.73728 38.3849 4.96534C38.5064 4.1934 38.7814 3.45366 39.1937 2.78986C39.6061 2.12606 40.1473 1.55169 40.7855 1.10072C41.4237 0.649738 42.1458 0.33131 42.9092 0.16427C43.6725 -0.00277043 44.4616 -0.0150378 45.2298 0.128201C45.998 0.271439 46.7297 0.567272 47.3816 0.998201C48.0335 1.42913 48.5923 1.9864 49.0251 2.63707C49.4578 3.28773 49.7557 4.01857 49.9011 4.78636C49.9265 4.85897 49.9583 4.92918 49.9961 4.99617L49.9511 6.78453Z" fill="#EE223D"/>
<path d="M4.9981 49.975C4.23328 49.7334 3.4884 49.4328 2.77016 49.0758C1.74432 48.4477 0.939604 47.5156 0.467818 46.4091C-0.00396816 45.3026 -0.119409 44.0766 0.137554 42.9015C0.390007 41.7525 0.980807 40.7054 1.83376 39.8952C2.6867 39.085 3.76275 38.5488 4.92322 38.3556C6.26177 38.1326 7.63618 38.3834 8.80962 39.065L9.10939 39.2248C9.10939 39.2248 9.13936 39.2248 9.23427 39.1449C8.73473 38.6803 8.23518 38.2457 7.78559 37.7662C7.09871 37.0353 6.56928 36.1712 6.23013 35.2273C5.89097 34.2834 5.74931 33.2799 5.81394 32.279C5.87858 31.2781 6.14815 30.3012 6.60588 29.4087C7.06362 28.5163 7.69979 27.7274 8.47496 27.0909L10.9427 29.5887C11.4722 30.0882 12.0117 30.6327 12.5212 31.1822C12.5777 31.2568 12.6172 31.3429 12.637 31.4343C12.6569 31.5257 12.6566 31.6204 12.6361 31.7117C11.637 34.6241 13.4154 37.4315 16.4876 37.6563C17.0981 37.6294 17.7042 37.539 18.2959 37.3865C18.4508 37.3865 18.6756 37.3416 18.7605 37.4265C20.1543 38.7902 21.528 40.174 22.9018 41.5477C20.5689 44.6049 14.5594 45.8838 10.7279 40.7634C10.9777 41.3079 11.2274 41.7276 11.3723 42.1722C11.6605 42.9679 11.7726 43.8167 11.7006 44.66C11.6286 45.5033 11.3743 46.3209 10.9553 47.0562C10.5363 47.7916 9.96264 48.4272 9.27391 48.919C8.58518 49.4109 7.79784 49.7474 6.96633 49.9051C6.89334 49.9295 6.82302 49.9613 6.7565 50L4.9981 49.975Z" fill="#EE223D"/>
<path d="M24.9693 10.576L31.1885 16.8054C31.5432 16.4207 31.833 16.081 32.1477 15.7663C32.2707 15.5827 32.4327 15.4286 32.6223 15.315C32.8118 15.2013 33.0241 15.1311 33.244 15.1091C33.4639 15.0872 33.6859 15.1142 33.8942 15.1881C34.1024 15.2621 34.2918 15.3812 34.4486 15.5369C34.6054 15.6926 34.7259 15.881 34.8013 16.0887C34.8768 16.2964 34.9053 16.5183 34.885 16.7383C34.8646 16.9584 34.7959 17.1712 34.6837 17.3616C34.5714 17.5519 34.4185 17.7151 34.2357 17.8394C33.931 18.1491 33.5963 18.4389 33.2367 18.7586L39.5009 25.0079L38.2371 26.2267C37.2929 27.1659 36.3488 28.11 35.4147 29.0591C35.3446 29.1547 35.2428 29.2223 35.1275 29.2498C35.0122 29.2772 34.8909 29.2628 34.7852 29.209C34.005 28.8849 33.1444 28.8069 32.3185 28.9855C31.4927 29.164 30.7411 29.5906 30.1645 30.2081C29.5463 30.7951 29.1201 31.5552 28.9418 32.3888C28.7635 33.2224 28.8414 34.0903 29.1654 34.8788C29.1903 34.9625 29.1965 35.0506 29.1836 35.1369C29.1706 35.2233 29.1389 35.3057 29.0905 35.3784C27.7617 36.7321 26.4079 38.0759 25.0641 39.4147C25.043 39.4292 25.0192 39.4394 24.9942 39.4447L18.7849 33.2253C18.4252 33.61 18.1305 33.9447 17.8158 34.2594C17.6822 34.4047 17.5208 34.5216 17.3411 34.6031C17.1614 34.6846 16.9671 34.729 16.7698 34.7338C16.5725 34.7385 16.3763 34.7035 16.1929 34.6307C16.0095 34.558 15.8426 34.449 15.7022 34.3103C15.5618 34.1716 15.4509 34.006 15.3759 33.8235C15.3009 33.641 15.2635 33.4452 15.2659 33.2479C15.2683 33.0506 15.3104 32.8557 15.3898 32.6751C15.4691 32.4944 15.584 32.3315 15.7277 32.1963C16.0324 31.8816 16.3621 31.5918 16.6968 31.2821L10.4375 25.0328C10.8471 24.6332 11.2118 24.2935 11.5665 23.9388C12.5656 22.9397 13.553 21.9506 14.5288 20.9715C14.5987 20.8771 14.6996 20.8104 14.8137 20.783C14.9279 20.7556 15.0481 20.7693 15.1532 20.8217C15.9342 21.1462 16.7957 21.2244 17.6224 21.0459C18.4491 20.8673 19.2015 20.4405 19.779 19.8226C20.3886 19.2396 20.8096 18.4874 20.9877 17.6629C21.1658 16.8384 21.0928 15.9794 20.7781 15.1968C20.7482 15.1079 20.7381 15.0136 20.7484 14.9204C20.7588 14.8273 20.7894 14.7375 20.838 14.6573C22.1568 13.3086 23.4956 11.9798 24.8344 10.661C24.8762 10.628 24.9214 10.5995 24.9693 10.576Z" fill="#EE223D"/>
<path d="M14.6591 16.7354L8.46479 22.9397C7.55649 22.1955 6.84043 21.2438 6.37704 20.1649C5.91365 19.086 5.71654 17.9115 5.80225 16.7404C5.95211 14.2426 7.37076 12.4143 9.1791 10.8058C8.42586 11.2794 7.57815 11.5826 6.69535 11.6939C5.81255 11.8052 4.91604 11.722 4.06879 11.4502C2.73794 11.0355 1.60562 10.1467 0.886699 8.95248C0.163232 7.79228 -0.13131 6.41546 0.0540863 5.06079C0.239483 3.70613 0.893169 2.45908 1.90176 1.53592C2.91035 0.612761 4.21021 0.0717246 5.57595 0.00664046C6.94169 -0.0584437 8.28712 0.35653 9.37893 1.17959C11.3321 2.60829 12.7958 5.79038 10.8776 9.17228L12.0715 7.96838C12.7863 7.23009 13.6512 6.65364 14.6077 6.27793C15.5643 5.90221 16.5902 5.73597 17.6164 5.79038C18.6484 5.83199 19.6599 6.09217 20.5839 6.55374C21.5079 7.01531 22.3234 7.66775 22.9765 8.46793L16.7223 14.7022C17.0669 15.007 17.4066 15.2817 17.7213 15.5864C17.905 15.7107 18.0587 15.8742 18.1715 16.0651C18.2843 16.256 18.3534 16.4696 18.3736 16.6904C18.3939 16.9113 18.3649 17.1338 18.2888 17.3421C18.2126 17.5503 18.0912 17.7391 17.9333 17.8948C17.7754 18.0504 17.5849 18.1691 17.3755 18.2423C17.1662 18.3154 16.9432 18.3411 16.7227 18.3177C16.5022 18.2942 16.2896 18.2221 16.1004 18.1066C15.9111 17.991 15.7499 17.8349 15.6282 17.6495C15.2785 17.3798 14.9888 17.0701 14.6591 16.7354Z" fill="#EE223D"/>
</svg>
