<svg width="80" height="80" viewBox="0 0 80 80" fill="none" xmlns="http://www.w3.org/2000/svg">
<rect width="80" height="80" rx="5" fill="white"/>
<path d="M58.2225 64.9746C57.5372 64.767 56.8692 64.5064 56.2243 64.1953C55.5462 63.8151 54.9514 63.3025 54.4753 62.6878C53.9992 62.0732 53.6516 61.3691 53.4531 60.6174C53.2546 59.8657 53.2092 59.0818 53.3197 58.3122C53.4302 57.5427 53.6943 56.8032 54.0962 56.1377C54.1581 56.0434 54.1813 55.929 54.1612 55.818C53.7616 56.2226 53.3719 56.6273 52.9673 57.0269C52.2531 57.7644 51.389 58.3401 50.4333 58.715C49.4775 59.0898 48.4525 59.2552 47.4274 59.1999C46.3961 59.1604 45.3851 58.9017 44.4617 58.4408C43.5384 57.98 42.7238 57.3277 42.0723 56.5273L48.3316 50.2581C47.9769 49.9634 47.6222 49.7036 47.3325 49.3989C47.1823 49.2661 47.061 49.104 46.9759 48.9225C46.8907 48.741 46.8436 48.5441 46.8375 48.3437C46.8314 48.1434 46.8663 47.9439 46.9402 47.7576C47.014 47.5713 47.1252 47.402 47.267 47.2603C47.4087 47.1186 47.5779 47.0074 47.7643 46.9335C47.9506 46.8596 48.1501 46.8247 48.3504 46.8308C48.5507 46.837 48.7477 46.884 48.9292 46.9691C49.1106 47.0543 49.2727 47.1756 49.4055 47.3258C49.7053 47.6205 49.975 47.9452 50.2598 48.2549L56.4841 42.0156C57.4068 42.7685 58.1342 43.7329 58.6047 44.8269C59.0752 45.9209 59.2748 47.1123 59.1866 48.2999C59.0268 50.7976 57.618 52.6009 55.8446 54.2095C56.2792 54.0097 56.6989 53.7799 57.1435 53.62C57.9389 53.3317 58.7875 53.2197 59.6304 53.2917C60.4734 53.3638 61.2907 53.6181 62.0256 54.0371C62.7606 54.4562 63.3957 55.0299 63.8871 55.7187C64.3785 56.4074 64.7143 57.1946 64.8714 58.026C64.8968 58.0986 64.9285 58.1688 64.9663 58.2358V59.9892C64.9303 60.0398 64.9017 60.0953 64.8814 60.154C64.6995 61.2122 64.2271 62.1989 63.517 63.0043C62.8069 63.8096 61.8871 64.4018 60.8601 64.7149C60.5753 64.8098 60.2806 64.8797 59.9909 64.9646L58.2225 64.9746Z" fill="#2A2A2A"/>
<path d="M64.9511 21.7847C64.8512 22.1194 64.7612 22.459 64.6463 22.7837C64.3655 23.6085 63.9038 24.3601 63.295 24.9834C62.6862 25.6067 61.9457 26.086 61.1278 26.3863C60.3099 26.6865 59.4352 26.8001 58.5677 26.7187C57.7002 26.6374 56.862 26.363 56.1142 25.9159C56.0685 25.885 56.0171 25.8637 55.963 25.8534C55.9089 25.8431 55.8532 25.844 55.7994 25.8559L56.9684 27.0099C58.0442 28.038 58.7694 29.3784 59.0415 30.8414C59.541 33.6738 58.6468 36.0116 56.5438 37.9549C55.145 36.5511 53.7613 35.1774 52.4025 33.7837C52.3669 33.7052 52.3486 33.6201 52.3486 33.5339C52.3486 33.4478 52.3669 33.3626 52.4025 33.2841C52.6221 32.7004 52.7144 32.0764 52.6732 31.4541C52.6319 30.8317 52.4581 30.2254 52.1634 29.6757C51.8687 29.126 51.4599 28.6457 50.9644 28.2669C50.4689 27.8881 49.8981 27.6196 49.2904 27.4794C48.4305 27.2849 47.5324 27.3474 46.7078 27.6593C46.6241 27.6865 46.5352 27.6935 46.4483 27.6796C46.3615 27.6657 46.2792 27.6314 46.2082 27.5794C44.8595 26.2606 43.5307 24.9218 42.2119 23.583C42.178 23.5418 42.1495 23.4965 42.127 23.4481C42.8775 22.5445 43.8343 21.8346 44.9167 21.3782C45.9991 20.9218 47.1753 20.7322 48.3462 20.8255C50.844 20.9854 52.6323 22.4041 54.2359 24.2824C53.9517 23.6297 53.7016 22.9628 53.4866 22.2842C53.298 21.5259 53.2634 20.7374 53.3849 19.9655C53.5064 19.1935 53.7814 18.4538 54.1937 17.79C54.6061 17.1262 55.1473 16.5518 55.7855 16.1008C56.4237 15.6499 57.1458 15.3314 57.9092 15.1644C58.6725 14.9974 59.4616 14.9851 60.2298 15.1283C60.998 15.2716 61.7297 15.5674 62.3816 15.9983C63.0335 16.4293 63.5923 16.9865 64.0251 17.6372C64.4578 18.2879 64.7557 19.0187 64.9011 19.7865C64.9265 19.8591 64.9583 19.9293 64.9961 19.9963L64.9511 21.7847Z" fill="#2A2A2A"/>
<path d="M19.9981 64.9749C19.2333 64.7333 18.4884 64.4327 17.7702 64.0757C16.7443 63.4476 15.9396 62.5155 15.4678 61.409C14.996 60.3025 14.8806 59.0765 15.1376 57.9014C15.39 56.7523 15.9808 55.7053 16.8338 54.8951C17.6867 54.0848 18.7628 53.5486 19.9232 53.3555C21.2618 53.1324 22.6362 53.3833 23.8096 54.0649L24.1094 54.2247C24.1094 54.2247 24.1394 54.2247 24.2343 54.1448C23.7347 53.6802 23.2352 53.2456 22.7856 52.7661C22.0987 52.0352 21.5693 51.171 21.2301 50.2271C20.891 49.2833 20.7493 48.2798 20.8139 47.2789C20.8786 46.278 21.1481 45.301 21.6059 44.4086C22.0636 43.5162 22.6998 42.7273 23.475 42.0908L25.9427 44.5885C26.4722 45.0881 27.0117 45.6326 27.5212 46.1821C27.5777 46.2567 27.6172 46.3427 27.637 46.4342C27.6569 46.5256 27.6566 46.6203 27.6361 46.7116C26.637 49.6239 28.4154 52.4314 31.4876 52.6562C32.0981 52.6293 32.7042 52.5389 33.2959 52.3864C33.4508 52.3864 33.6756 52.3414 33.7605 52.4264C35.1543 53.7901 36.528 55.1739 37.9018 56.5476C35.5689 59.6048 29.5594 60.8836 25.7279 55.7633C25.9777 56.3078 26.2274 56.7274 26.3723 57.172C26.6605 57.9678 26.7726 58.8166 26.7006 59.6599C26.6286 60.5032 26.3743 61.3207 25.9553 62.0561C25.5363 62.7915 24.9626 63.427 24.2739 63.9189C23.5852 64.4108 22.7978 64.7472 21.9663 64.905C21.8933 64.9294 21.823 64.9612 21.7565 64.9999L19.9981 64.9749Z" fill="#2A2A2A"/>
<path d="M39.9693 25.5762L46.1885 31.8055C46.5432 31.4208 46.833 31.0811 47.1477 30.7664C47.2707 30.5828 47.4327 30.4287 47.6223 30.3151C47.8118 30.2015 48.0241 30.1312 48.244 30.1093C48.4639 30.0873 48.6859 30.1143 48.8942 30.1883C49.1024 30.2622 49.2918 30.3813 49.4486 30.537C49.6054 30.6927 49.7259 30.8811 49.8013 31.0888C49.8768 31.2966 49.9053 31.5184 49.885 31.7384C49.8646 31.9585 49.7959 32.1713 49.6837 32.3617C49.5714 32.552 49.4185 32.7152 49.2357 32.8395C48.931 33.1492 48.5963 33.439 48.2367 33.7587L54.5009 40.008L53.2371 41.2269C52.2929 42.166 51.3488 43.1101 50.4147 44.0593C50.3446 44.1549 50.2428 44.2224 50.1275 44.2499C50.0122 44.2773 49.8909 44.2629 49.7852 44.2091C49.005 43.885 48.1444 43.807 47.3185 43.9856C46.4927 44.1641 45.7411 44.5907 45.1645 45.2082C44.5463 45.7952 44.1201 46.5553 43.9418 47.3889C43.7635 48.2225 43.8414 49.0905 44.1654 49.8789C44.1903 49.9626 44.1965 50.0507 44.1836 50.1371C44.1706 50.2234 44.1389 50.3058 44.0905 50.3785C42.7617 51.7322 41.4079 53.076 40.0641 54.4148C40.043 54.4293 40.0192 54.4395 39.9942 54.4448L33.7849 48.2255C33.4252 48.6101 33.1305 48.9448 32.8158 49.2595C32.6822 49.4048 32.5208 49.5217 32.3411 49.6032C32.1614 49.6847 31.9671 49.7292 31.7698 49.7339C31.5725 49.7387 31.3763 49.7036 31.1929 49.6308C31.0095 49.5581 30.8426 49.4491 30.7022 49.3104C30.5618 49.1717 30.4509 49.0062 30.3759 48.8236C30.3009 48.6411 30.2635 48.4453 30.2659 48.248C30.2683 48.0507 30.3104 47.8559 30.3898 47.6752C30.4691 47.4945 30.584 47.3317 30.7277 47.1964C31.0324 46.8817 31.3621 46.592 31.6968 46.2822L25.4375 40.033C25.8471 39.6333 26.2118 39.2936 26.5665 38.9389C27.5656 37.9399 28.553 36.9508 29.5288 35.9717C29.5987 35.8773 29.6996 35.8105 29.8137 35.7831C29.9279 35.7557 30.0481 35.7694 30.1532 35.8218C30.9342 36.1463 31.7957 36.2245 32.6224 36.046C33.4491 35.8674 34.2015 35.4406 34.779 34.8227C35.3886 34.2398 35.8096 33.4875 35.9877 32.663C36.1658 31.8385 36.0928 30.9796 35.7781 30.1969C35.7482 30.1081 35.7381 30.0138 35.7484 29.9206C35.7588 29.8274 35.7894 29.7376 35.838 29.6574C37.1568 28.3087 38.4956 26.9799 39.8344 25.6611C39.8762 25.6281 39.9214 25.5997 39.9693 25.5762Z" fill="#2A2A2A"/>
<path d="M29.6591 31.7354L23.4648 37.9397C22.5565 37.1955 21.8404 36.2438 21.377 35.1649C20.9136 34.086 20.7165 32.9115 20.8022 31.7404C20.9521 29.2426 22.3708 27.4143 24.1791 25.8058C23.4259 26.2794 22.5782 26.5826 21.6954 26.6939C20.8125 26.8052 19.916 26.722 19.0688 26.4502C17.7379 26.0355 16.6056 25.1467 15.8867 23.9525C15.1632 22.7923 14.8687 21.4155 15.0541 20.0608C15.2395 18.7061 15.8932 17.4591 16.9018 16.5359C17.9104 15.6128 19.2102 15.0717 20.576 15.0066C21.9417 14.9416 23.2871 15.3565 24.3789 16.1796C26.3321 17.6083 27.7958 20.7904 25.8776 24.1723L27.0715 22.9684C27.7863 22.2301 28.6512 21.6536 29.6077 21.2779C30.5643 20.9022 31.5902 20.736 32.6164 20.7904C33.6484 20.832 34.6599 21.0922 35.5839 21.5537C36.5079 22.0153 37.3234 22.6677 37.9765 23.4679L31.7223 29.7022C32.0669 30.007 32.4066 30.2817 32.7213 30.5864C32.905 30.7107 33.0587 30.8742 33.1715 31.0651C33.2843 31.256 33.3534 31.4696 33.3736 31.6904C33.3939 31.9113 33.3649 32.1338 33.2888 32.3421C33.2126 32.5503 33.0912 32.7391 32.9333 32.8948C32.7754 33.0504 32.5849 33.1691 32.3755 33.2423C32.1662 33.3154 31.9432 33.3411 31.7227 33.3177C31.5022 33.2942 31.2896 33.2221 31.1004 33.1066C30.9111 32.991 30.7499 32.8349 30.6282 32.6495C30.2785 32.3798 29.9888 32.0701 29.6591 31.7354Z" fill="#2A2A2A"/>
</svg>
