<svg width="80" height="80" viewBox="0 0 80 80" fill="none" xmlns="http://www.w3.org/2000/svg">
<rect width="80" height="80" rx="5" fill="white"/>
<path d="M15.0195 37.7832C15.1445 37.0034 15.2595 36.2186 15.3994 35.4439C16.0988 31.4778 17.7813 27.7502 20.293 24.6021C23.9562 19.8819 29.2051 16.6484 35.0686 15.4999C36.1882 15.2699 37.333 15.1749 38.5026 15C38.5026 15.2399 38.5325 15.3799 38.5325 15.4999C38.5325 17.7292 38.5325 19.9535 38.5325 22.1779C38.5325 22.5228 38.4176 22.6377 38.1127 22.7427C36.9666 23.1265 35.9683 23.8573 35.2563 24.834C34.5443 25.8106 34.1538 26.9846 34.1389 28.1931C34.1241 29.4016 34.4857 30.5848 35.1735 31.5786C35.8614 32.5724 36.8414 33.3276 37.9777 33.7394C38.069 33.7567 38.1559 33.792 38.2334 33.8433C38.3109 33.8945 38.3774 33.9607 38.429 34.038C38.4807 34.1152 38.5165 34.2019 38.5342 34.2931C38.552 34.3843 38.5514 34.4782 38.5325 34.5691C38.5025 35.8638 38.5325 37.1634 38.5325 38.528H32.8743C32.6548 38.503 32.4325 38.5269 32.2234 38.5978C32.0142 38.6687 31.8232 38.785 31.6642 38.9383C31.5052 39.0916 31.3819 39.2781 31.3034 39.4846C31.2248 39.691 31.1929 39.9122 31.2098 40.1325C31.1724 40.8691 30.8589 41.5646 30.3318 42.0805C29.8048 42.5965 29.1029 42.895 28.3656 42.9166C27.6127 42.9457 26.8782 42.6799 26.3182 42.1759C25.7581 41.6718 25.4167 40.9692 25.3665 40.2175C25.2666 38.9928 24.7616 38.528 23.517 38.528H15.0195V37.7832Z" fill="#2A2A2A"/>
<path d="M41.4516 64.9945V57.4518L42.0664 57.2119C43.1967 56.7915 44.169 56.0311 44.8493 55.0354C45.5297 54.0396 45.8847 52.8575 45.8655 51.6517C45.8463 50.4458 45.4539 49.2756 44.7422 48.302C44.0305 47.3284 43.0345 46.5994 41.8914 46.2152C41.5565 46.1052 41.4366 45.9702 41.4416 45.6153C41.4665 44.2507 41.4416 42.8911 41.4416 41.4766H42.0063C43.7108 41.4766 45.4154 41.4766 47.1249 41.4766C47.3402 41.4971 47.5573 41.4709 47.7614 41.3996C47.9656 41.3283 48.1521 41.2137 48.3078 41.0637C48.4635 40.9137 48.5849 40.7317 48.6638 40.5303C48.7426 40.329 48.7768 40.1129 48.7643 39.897C48.794 39.1598 49.1009 38.4609 49.6236 37.9401C50.1462 37.4193 50.8462 37.115 51.5835 37.0879C52.3464 37.0483 53.0941 37.3119 53.6634 37.8213C54.2327 38.3307 54.5775 39.0445 54.6227 39.8071C54.7176 41.0017 55.2374 41.4766 56.4371 41.4766H65.0595C64.8496 42.8212 64.7396 44.1158 64.4397 45.3704C62.4403 53.7679 57.4684 59.6945 49.5241 63.1501C47.3288 64.088 44.9992 64.6733 42.6213 64.8846C42.4963 64.9092 42.3728 64.9409 42.2514 64.9795L41.4516 64.9945Z" fill="#2A2A2A"/>
<path d="M15.0199 41.4923H22.5727C22.9139 42.7784 23.6803 43.9111 24.7471 44.7063C25.4817 45.2563 26.336 45.625 27.2402 45.7821C28.1444 45.9392 29.073 45.8804 29.9501 45.6104C30.8273 45.3404 31.6282 44.867 32.2876 44.2286C32.9469 43.5903 33.4462 42.8051 33.7444 41.9371C33.7565 41.8647 33.7827 41.7955 33.8218 41.7333C33.8608 41.6712 33.9118 41.6174 33.9717 41.5751C34.0317 41.5328 34.0995 41.5028 34.1711 41.4869C34.2428 41.4709 34.3168 41.4694 34.3891 41.4823C35.7337 41.5073 37.0834 41.4823 38.488 41.4823V42.0321C38.488 43.7566 38.488 45.4761 38.488 47.2006C38.4705 47.4142 38.4989 47.6292 38.5716 47.8309C38.6442 48.0327 38.7593 48.2164 38.909 48.3699C39.0587 48.5234 39.2395 48.643 39.4393 48.7207C39.6392 48.7983 39.8534 48.8322 40.0674 48.8201C40.81 48.8558 41.5114 49.172 42.0298 49.7048C42.5481 50.2377 42.8448 50.9474 42.8601 51.6907C42.8753 52.4339 42.6079 53.1553 42.1118 53.7089C41.6156 54.2626 40.9279 54.6072 40.1874 54.6733C38.9828 54.7683 38.503 55.2831 38.503 56.4728V65.0002H37.7232C36.8334 64.8553 35.9287 64.7503 35.0489 64.5654C29.1866 63.4108 23.9391 60.1764 20.2733 55.4581C17.7646 52.3082 16.0826 48.5814 15.3799 44.6163C15.2399 43.8416 15.125 43.0568 15 42.277L15.0199 41.4923Z" fill="#2A2A2A"/>
<path d="M41.4528 15.0801C54.349 15.6949 64.4459 26.4817 64.9458 38.5331H57.448C56.4833 35.8039 54.6088 34.1544 51.6347 34.2044C48.7706 34.2493 46.9661 35.8839 46.0414 38.5531H41.4828V38.0532C41.4828 36.3487 41.4828 34.6442 41.4828 32.9347C41.5085 32.7153 41.4853 32.493 41.415 32.2835C41.3447 32.0741 41.2291 31.8828 41.0762 31.7233C40.9234 31.5638 40.7372 31.4401 40.531 31.3609C40.3248 31.2817 40.1035 31.249 39.8832 31.2652C39.1462 31.2303 38.4495 30.9185 37.9324 30.3921C37.4153 29.8658 37.116 29.1636 37.0941 28.4261C37.0638 27.6737 37.3284 26.9391 37.8316 26.3789C38.3348 25.8188 39.0369 25.4772 39.7883 25.427C41.0179 25.327 41.4828 24.8222 41.4828 23.5875V15.0801H41.4528Z" fill="#2A2A2A"/>
</svg>
