<svg width="80" height="80" viewBox="0 0 80 80" fill="none" xmlns="http://www.w3.org/2000/svg">
<rect width="80" height="80" rx="5" fill="white"/>
<path d="M10.01 49.4343C10.2024 48.6213 10.4513 47.8227 10.755 47.0443C12.195 43.9794 14.63 42.2594 17.9999 42.0094C19.6349 41.8894 21.2899 42.0094 22.9649 42.0094C22.9799 42.1155 22.9799 42.2232 22.9649 42.3294C22.4841 43.8683 22.271 45.4783 22.3349 47.0893C22.3349 52.0143 22.3349 56.9442 22.3349 61.8692C22.3349 62.8942 22.4249 63.9241 22.4749 64.9841C22.4184 64.9905 22.3614 64.9905 22.3049 64.9841C19.8749 64.9841 17.4449 65.0191 15.015 64.9841C13.8449 64.9831 12.7122 64.5718 11.8141 63.8217C10.916 63.0717 10.3095 62.0304 10.1 60.8792C10.0733 60.7885 10.0398 60.6999 10 60.6142L10.01 49.4343Z" fill="#2A2A2A"/>
<path d="M39.4429 64.9742H27.8431C26.3431 64.9742 25.7431 64.3892 25.7481 62.9042C25.7481 57.1292 25.7481 51.3543 25.7481 45.5794C25.7781 41.8044 28.9581 38.2395 32.693 37.6795C33.2025 37.5985 33.7172 37.5551 34.233 37.5495C37.868 37.5495 41.5079 37.5195 45.1429 37.5495C48.7778 37.5795 52.4078 40.7894 52.9528 44.4594C53.0445 45.0466 53.0913 45.64 53.0928 46.2344C53.0928 51.8143 53.0928 57.3959 53.0928 62.9792C53.1322 63.251 53.1076 63.5282 53.021 63.7888C52.9345 64.0495 52.7883 64.2863 52.5941 64.4805C52.3999 64.6747 52.1631 64.8209 51.9025 64.9074C51.6418 64.994 51.3646 65.0186 51.0928 64.9792L39.4429 64.9742Z" fill="#2A2A2A"/>
<path d="M39.4589 15C41.485 15.0021 43.4648 15.6057 45.1473 16.7343C46.8299 17.8629 48.1395 19.4657 48.9099 21.3396C49.6804 23.2134 49.8771 25.2738 49.4752 27.2595C49.0732 29.2453 48.0906 31.067 46.652 32.4936C45.2134 33.9203 43.3837 34.8876 41.3946 35.273C39.4056 35.6584 37.3469 35.4445 35.4796 34.6584C33.6123 33.8724 32.0204 32.5495 30.9058 30.8576C29.7912 29.1657 29.2042 27.1809 29.219 25.1549C29.2349 22.4518 30.3216 19.8653 32.2409 17.9618C34.1603 16.0584 36.7558 14.9934 39.4589 15Z" fill="#2A2A2A"/>
<path d="M56.38 64.9742C56.43 63.9142 56.515 62.9042 56.52 61.8992C56.52 57.0043 56.52 52.1143 56.52 47.2244C56.5922 45.5568 56.3774 43.8893 55.885 42.2945C55.8717 42.1765 55.8717 42.0574 55.885 41.9395C58.4149 42.0945 60.9499 41.6095 63.3849 42.5294C64.9569 43.1375 66.3134 44.1977 67.2834 45.5761C68.2534 46.9545 68.7932 48.5894 68.8348 50.2744C68.8348 53.4593 68.8348 56.6443 68.8348 59.8293C68.8521 60.4925 68.7372 61.1526 68.4968 61.771C68.2564 62.3894 67.8954 62.9538 67.4346 63.4313C66.9739 63.9088 66.4228 64.2898 65.8133 64.5521C65.2039 64.8144 64.5484 64.9528 63.8849 64.9592C61.3699 65.0292 58.8449 64.9742 56.38 64.9742Z" fill="#2A2A2A"/>
<path d="M29.1247 31.8447C29.4197 35.9096 26.1248 39.5896 21.8498 39.8446C20.838 39.8902 19.8272 39.7346 18.8759 39.3869C17.9246 39.0392 17.0517 38.5063 16.3077 37.8191C15.5637 37.1318 14.9634 36.3038 14.5416 35.383C14.1197 34.4623 13.8846 33.4669 13.8499 32.4547C13.6349 28.6547 16.8949 24.9048 20.6648 24.5798C21.7031 24.4711 22.7527 24.5755 23.7492 24.8866C24.7458 25.1978 25.6683 25.709 26.4603 26.3892C27.2524 27.0693 27.8972 27.904 28.3553 28.8421C28.8135 29.7802 29.0753 30.8019 29.1247 31.8447Z" fill="#2A2A2A"/>
<path d="M57.3737 24.5303C58.8914 24.5283 60.3755 24.9769 61.6379 25.8193C62.9004 26.6617 63.8843 27.8598 64.4651 29.262C65.0459 30.6641 65.1973 32.2072 64.9003 33.6955C64.6032 35.1838 63.871 36.5504 62.7965 37.6222C61.7219 38.6939 60.3534 39.4226 58.8643 39.7158C57.3752 40.0089 55.8326 39.8534 54.432 39.269C53.0313 38.6845 51.8357 37.6974 50.9966 36.4328C50.1576 35.1681 49.7129 33.6829 49.7188 32.1652C49.7333 30.1413 50.545 28.2047 51.9781 26.7754C53.4111 25.3461 55.3498 24.5394 57.3737 24.5303Z" fill="#2A2A2A"/>
</svg>
