<svg width="60" height="61" viewBox="0 0 60 61" fill="none" xmlns="http://www.w3.org/2000/svg">
<path d="M30 60.584C46.5685 60.584 60 47.1525 60 30.584C60 14.0154 46.5685 0.583984 30 0.583984C13.4315 0.583984 0 14.0154 0 30.584C0 47.1525 13.4315 60.584 30 60.584Z" fill="#EE223D"/>
<path d="M37.7772 28.8814C34.8522 32.6989 32.1522 36.6814 29.5272 40.7164C27.7797 43.4239 26.0847 46.1689 24.4647 48.9664C24.4122 49.0639 24.3522 49.1464 24.2697 49.2814C23.9547 48.7639 23.6547 48.2689 23.3472 47.7814C20.1747 42.7789 16.7172 37.9789 13.2447 33.1864C12.6147 32.3164 12.6072 32.3239 13.3797 31.5664C13.9272 31.0189 14.4973 30.4864 15.0223 29.9164C15.3148 29.5939 15.5097 29.6239 15.8472 29.8564C18.5172 31.7389 21.2097 33.6064 23.8797 35.4889C24.1647 35.6839 24.2697 35.6614 24.4797 35.3989C27.4219 31.5934 30.6113 27.9857 34.0272 24.5989C36.1122 22.6189 38.2273 20.6764 40.4923 18.8989C41.6945 17.9274 42.9462 17.0188 44.2423 16.1764C44.357 16.0797 44.4981 16.0196 44.6473 16.0039H49.2147C44.9853 19.9073 41.154 24.2209 37.7772 28.8814Z" fill="white"/>
</svg>
