<svg width="50" height="50" viewBox="0 0 50 50" fill="none" xmlns="http://www.w3.org/2000/svg">
<path d="M10.6837 0C12.2859 0.311491 13.4407 1.31605 14.5349 2.43547C16.4712 4.41733 18.476 6.32909 20.3654 8.35962C22.1396 10.2617 22.1239 12.8373 20.383 14.7666C19.1715 16.106 17.8566 17.3539 16.565 18.6213C16.3051 18.8783 16.2446 19.0574 16.4107 19.4C17.7022 22.0925 19.5702 24.3644 21.5886 26.5254C23.6326 28.7477 25.9515 30.7023 28.4898 32.3425C29.1893 32.7883 29.9416 33.1504 30.6606 33.567C30.9049 33.7111 31.0514 33.6663 31.2468 33.4716C32.3351 32.3678 33.3961 31.2464 34.547 30.201C35.1494 29.6086 35.8443 29.1175 36.6045 28.7467C38.5584 27.8998 40.3326 28.3729 41.8234 29.8097C43.9727 31.8947 46.0712 34.0479 48.2147 36.1446C50.4343 38.3173 50.6239 41.1947 48.5605 43.4101C47.0423 45.0416 45.4929 46.6594 43.8379 48.1526C42.0657 49.749 39.8558 50.1442 37.5248 49.9573C33.8651 49.6653 30.516 48.3765 27.2686 46.7645C22.4719 44.4052 18.0757 41.3118 14.2399 37.5969C8.46014 31.9687 3.8059 25.5792 1.14856 17.8854C0.411929 15.7439 -0.0452859 13.5635 0.00356222 11.2896C0.0524103 9.07995 0.785132 7.15065 2.34827 5.56594C3.64177 4.25379 4.94438 2.95592 6.25612 1.67232C7.11919 0.821327 8.21466 0.242396 9.40584 0.00778299L10.6837 0ZM38.3747 47.4848C39.9046 47.5218 41.3056 47.1402 42.4272 46.0695C43.8926 44.6587 45.317 43.2031 46.7004 41.7028C47.734 40.5814 47.7223 39.351 46.6555 38.2589C44.4573 36.0083 42.22 33.7929 39.9691 31.5949C39.0918 30.7383 37.98 30.7169 36.9816 31.4411C36.7355 31.6289 36.5036 31.8345 36.2879 32.0563C35.0706 33.2614 33.8631 34.4762 32.6458 35.6774C31.8291 36.4834 30.9752 36.6235 29.9689 36.1115C29.2577 35.7514 28.5445 35.3854 27.8606 34.9765C24.7676 33.1309 22.0673 30.8084 19.6249 28.1821C17.3642 25.7525 15.3067 23.1749 13.9292 20.1204C13.3313 18.7907 13.468 18.0704 14.5153 17.0658C15.7131 15.9133 16.9109 14.7588 18.0754 13.5732C19.4432 12.1793 19.4431 11.0423 18.0989 9.6309L18.0305 9.56277C16.0218 7.55949 14.0171 5.55038 11.9967 3.56074C11.679 3.2336 11.3085 2.96182 10.9006 2.7567C9.78881 2.24079 8.85875 2.6944 8.0635 3.46534C6.77586 4.71325 5.48236 5.95921 4.26507 7.27331C3.72196 7.8543 3.28428 8.5249 2.97156 9.25518C2.2955 10.8788 2.47332 12.5803 2.81135 14.2507C3.45615 17.4337 4.68711 20.4124 6.28542 23.2216C11.9967 33.2594 19.9902 40.852 30.6391 45.5516C33.1011 46.638 35.6588 47.3875 38.3747 47.4848Z" fill="#0F0D0D"/>
</svg>
