<svg width="36" height="46" viewBox="0 0 36 46" fill="none" xmlns="http://www.w3.org/2000/svg">
<path d="M18 9.85724C16.3818 9.85724 14.7999 10.339 13.4544 11.2416C12.1089 12.1442 11.0602 13.4271 10.441 14.9281C9.82172 16.4291 9.65969 18.0807 9.97539 19.6742C10.2911 21.2676 11.0703 22.7312 12.2146 23.88C13.3588 25.0288 14.8167 25.8112 16.4038 26.1281C17.9909 26.4451 19.636 26.2824 21.131 25.6607C22.6261 25.039 23.9039 23.9861 24.8029 22.6353C25.702 21.2844 26.1818 19.6963 26.1818 18.0716C26.1818 15.893 25.3198 13.8037 23.7854 12.2632C22.251 10.7227 20.17 9.85724 18 9.85724ZM18 23.0002C17.0291 23.0002 16.08 22.7112 15.2727 22.1696C14.4654 21.628 13.8361 20.8583 13.4646 19.9577C13.093 19.0571 12.9958 18.0661 13.1852 17.1101C13.3747 16.154 13.8422 15.2758 14.5287 14.5865C15.2153 13.8973 16.09 13.4279 17.0423 13.2377C17.9946 13.0475 18.9816 13.1451 19.8786 13.5182C20.7756 13.8912 21.5423 14.5229 22.0818 15.3334C22.6212 16.1439 22.9091 17.0968 22.9091 18.0716C22.9091 19.3788 22.3919 20.6324 21.4713 21.5567C20.5506 22.481 19.302 23.0002 18 23.0002ZM18 0C13.2278 0.00543531 8.65254 1.91115 5.27806 5.29906C1.90357 8.68696 0.00541377 13.2804 0 18.0716C0 24.5199 2.96795 31.3542 8.59091 37.8374C11.1175 40.767 13.9612 43.405 17.0693 45.7027C17.3445 45.8962 17.6722 46 18.0082 46C18.3441 46 18.6719 45.8962 18.947 45.7027C22.0495 43.4041 24.8876 40.7661 27.4091 37.8374C33.0239 31.3542 36 24.5199 36 18.0716C35.9946 13.2804 34.0964 8.68696 30.7219 5.29906C27.3475 1.91115 22.7722 0.00543531 18 0ZM18 42.304C14.6189 39.6343 3.27273 29.8284 3.27273 18.0716C3.27273 14.1502 4.82435 10.3893 7.58625 7.61643C10.3481 4.84354 14.0941 3.28575 18 3.28575C21.9059 3.28575 25.6519 4.84354 28.4138 7.61643C31.1757 10.3893 32.7273 14.1502 32.7273 18.0716C32.7273 29.8243 21.3811 39.6343 18 42.304Z" fill="black"/>
</svg>
