<svg width="57" height="38" viewBox="0 0 57 38" fill="none" xmlns="http://www.w3.org/2000/svg">
<path d="M57 35.5772C56.7427 36.0617 56.5538 36.6028 56.2133 37.0219C55.6005 37.7785 54.7261 38 53.7728 38C47.7615 37.9941 41.7507 37.9941 35.7405 38C24.9255 38 14.1106 38 3.29566 38C2.47324 38 1.70733 37.8514 1.06486 37.3088C0.321261 36.6801 -0.00295413 35.873 2.02711e-05 34.9053C0.00696055 31.1972 0.00696055 27.4891 2.02711e-05 23.781V3.36671C2.02711e-05 1.15791 1.15112 0 3.35069 0H53.3816C55.4979 0 56.2073 0.472673 56.997 2.41987L57 35.5772ZM54.7692 3.61197C54.5179 3.7948 54.3528 3.90924 54.1907 4.03261C46.7279 9.62547 39.2646 15.2193 31.8009 20.8142C29.698 22.3883 27.308 22.3927 25.2259 20.832L2.75432 3.98506C2.6056 3.8706 2.44201 3.76209 2.25313 3.6298V34.1383C2.46134 33.8916 2.6056 33.7266 2.74242 33.5571L13.3164 20.502C13.7239 19.9981 14.118 19.4809 14.5523 19.0007C14.7388 18.7892 15.0012 18.6596 15.2827 18.6402C15.5641 18.6207 15.8419 18.7129 16.0559 18.8967C16.2626 19.0728 16.3964 19.3194 16.4313 19.5887C16.4662 19.8579 16.3997 20.1304 16.2447 20.3534C16.1603 20.4754 16.0689 20.5925 15.9711 20.7042C12.0508 25.5469 8.13006 30.3886 4.20881 35.2293C4.07645 35.3928 3.953 35.5623 3.80428 35.7555H53.2062C53.0664 35.5697 52.9727 35.4345 52.87 35.3096C49.042 30.5848 45.2134 25.859 41.3844 21.1323C41.1851 20.8885 40.9754 20.6507 40.7895 20.389C40.6153 20.1675 40.5352 19.8863 40.5667 19.6062C40.5981 19.3262 40.7385 19.0697 40.9576 18.8922C41.1737 18.7123 41.4511 18.6229 41.7316 18.6429C42.0122 18.6628 42.2742 18.7905 42.4626 18.9993C42.5638 19.1081 42.6591 19.2222 42.7482 19.3411L54.3483 33.6463C54.4643 33.795 54.5907 33.9272 54.7781 34.1428L54.7692 3.61197ZM4.07793 2.21325C4.26086 2.36189 4.33968 2.43919 4.42593 2.51054C11.8411 8.07069 19.2568 13.6299 26.673 19.188C27.1976 19.5956 27.8436 19.8158 28.508 19.8137C29.1724 19.8115 29.817 19.5871 30.3389 19.1761C37.7402 13.6318 45.1416 8.08606 52.5429 2.53879C52.6584 2.46591 52.7797 2.40276 52.9057 2.35001L52.7763 2.22069L4.07793 2.21325Z" fill="#0F0D0D"/>
</svg>
