<svg width="60" height="60" viewBox="0 0 60 60" fill="none" xmlns="http://www.w3.org/2000/svg">
<path d="M30 60C46.5685 60 60 46.5685 60 30C60 13.4315 46.5685 0 30 0C13.4315 0 0 13.4315 0 30C0 46.5685 13.4315 60 30 60Z" fill="#EE223D"/>
<path d="M29.1458 15H30.8647C31.3575 15.084 31.862 15.144 32.3489 15.252C35.1804 15.9172 37.646 17.6867 39.2206 20.1836C40.7953 22.6806 41.3545 25.7076 40.7792 28.62C40.3661 30.7139 39.6294 32.7272 38.5969 34.584C36.5142 38.3274 33.8716 41.7143 30.765 44.622C30.5956 44.7602 30.4172 44.8865 30.2311 45H29.7735C29.507 44.8169 29.2523 44.6165 29.0109 44.4C27.1993 42.6545 25.5351 40.7558 24.036 38.724C22.3713 36.5318 21.0221 34.1072 20.0291 31.524C19.1022 28.992 18.6504 26.4 19.3192 23.724C20.4397 19.284 23.1912 16.452 27.5325 15.276C28.0546 15.156 28.606 15.096 29.1458 15ZM30.0023 32.496C31.2109 32.4984 32.393 32.1339 33.399 31.4488C34.405 30.7636 35.1896 29.7886 35.6535 28.6472C36.1173 27.5057 36.2396 26.2492 36.0048 25.0366C35.77 23.8241 35.1887 22.71 34.3345 21.8355C33.4803 20.9611 32.3915 20.3655 31.2062 20.1242C30.0208 19.8829 28.7921 20.0067 27.6756 20.48C26.5591 20.9533 25.605 21.7548 24.9341 22.783C24.2632 23.8112 23.9057 25.0199 23.9069 26.256C23.9069 27.9099 24.5489 29.4962 25.6918 30.6662C26.8348 31.8363 28.3852 32.4944 30.0023 32.496Z" fill="white"/>
</svg>
