<svg width="60" height="60" viewBox="0 0 60 60" fill="none" xmlns="http://www.w3.org/2000/svg">
<g clip-path="url(#clip0_255_791)">
<path d="M30 60C46.5685 60 60 46.5685 60 30C60 13.4315 46.5685 0 30 0C13.4315 0 0 13.4315 0 30C0 46.5685 13.4315 60 30 60Z" fill="#EE223D"/>
<path d="M37.7772 28.2975C34.8522 32.115 32.1522 36.0974 29.5272 40.1324C27.7797 42.8399 26.0847 45.5849 24.4647 48.3824C24.4122 48.4799 24.3522 48.5624 24.2697 48.6974C23.9547 48.1799 23.6547 47.6849 23.3472 47.1974C20.1747 42.1949 16.7172 37.3949 13.2447 32.6024C12.6147 31.7324 12.6072 31.7399 13.3797 30.9824C13.9272 30.4349 14.4973 29.9024 15.0223 29.3324C15.3148 29.0099 15.5097 29.0399 15.8472 29.2724C18.5172 31.1549 21.2097 33.0225 23.8797 34.905C24.1647 35.1 24.2697 35.0774 24.4797 34.8149C27.4219 31.0094 30.6113 27.4017 34.0272 24.0149C36.1122 22.0349 38.2273 20.0924 40.4923 18.3149C41.6945 17.3434 42.9462 16.4348 44.2423 15.5925C44.357 15.4957 44.4981 15.4356 44.6473 15.4199H49.2147C44.9853 19.3233 41.154 23.637 37.7772 28.2975Z" fill="white"/>
</g>
<defs>
<clipPath id="clip0_255_791">
<rect width="60" height="60" fill="white"/>
</clipPath>
</defs>
</svg>
